<?xml version="1.0" encoding="UTF-8"?>
<svg xmlns:xodm="http://www.corel.com/coreldraw/odm/2003" xmlns="http://www.w3.org/2000/svg" xmlns:xlink="http://www.w3.org/1999/xlink" version="1.1" id="Layer_1" x="0px" y="0px" viewBox="0 0 2500 2500" style="enable-background:new 0 0 2500 2500;" xml:space="preserve">
<style type="text/css">
	.st0{fill:none;}
	.st1{fill-rule:evenodd;clip-rule:evenodd;fill:#1273EA;}
	.st2{fill:#FFFFFF;}
</style>
<g id="Layer_x0020_1">
	<g id="_2286897315680">
		<rect y="0" class="st0" width="2500" height="2500"></rect>
		<g>
			<path class="st1" d="M326,192v1543c0,29,7,57,20,83s32,48,55,67l755,584c27,21,60,32,94,32s67-11,94-32l755-584     c23-18,42-41,55-67s20-55,20-83V192c0-51-21-100-58-136c-38-36-88-56-141-56H527c-53,0-104,20-141,56s-59,85-59,136H326z"></path>
			<path class="st2" d="M1874,865V480c0-51-21-100-58-136c-38-36-88-57-141-57H826c-53,0-104,20-141,57c-37,36-58,85-58,136v1116     c0,29,7,58,20,83c13,26,32,49,55,67l309,239c4,3,8,4,13,5c5,0,9,0,14-2c4-2,8-5,10-9c3-4,4-8,4-13v-789c0-7,3-13,8-17     c5-5,11-7,18-7h225c39,0,78,15,106,42s44,64,44,102v669c0,4,1,9,4,13s6,7,10,9c9,4,19,3,26-3l309-239c24-18,42-41,55-67     s20-54,20-83v-347c0-51-21-100-58-136c-38-36-88-56-142-56c53,0,104-20,141-57c37-36,58-85,58-136L1874,865z M1300,961h-225     c-6,0-13-3-18-7s-7-11-7-17V504c0-6,3-12,7-17c5-4,11-7,18-7h349c7,0,13,3,18,7c5,5,7,11,7,17v313c0,38-16,75-44,102     s-66,42-106,42H1300z"></path>
		</g>
	</g>
</g>
</svg>
